<svg id="Layer_1" data-name="Layer 1" xmlns="http://www.w3.org/2000/svg" viewBox="0 0 620 620"><defs><style>.cls-1{fill:#ff0061;}.cls-2{opacity:0.3;isolation:isolate;}.cls-3{fill:#ff5ba0;}.cls-4{fill:#fff;}</style></defs><path class="cls-1" d="M620,18.19A18.31,18.31,0,0,0,601.61-.2H18.39A18.31,18.31,0,0,0,0,18.19V601.81A18.31,18.31,0,0,0,18.39,620.2H452.84L620,453.05Z"/><path class="cls-2" d="M457.75,458.77l-161,161H452.84L619.59,453.05"/><path class="cls-3" d="M620,452.64H471.23A18.32,18.32,0,0,0,452.84,471V619.8Z"/><path class="cls-4" d="M432,218.45V405.23a6.45,6.45,0,0,1-6.54,6.54H376.82a6.45,6.45,0,0,1-6.54-6.54V312c-20,27.39-39.64,54.36-60.08,82.15-4.08-5.31-58.44-81.74-61.3-86.64,0,3.68,0,75.2-.41,97.68a6.45,6.45,0,0,1-6.54,6.54H195a6.45,6.45,0,0,1-6.54-6.54V218A6.45,6.45,0,0,1,195,211.5h42.91a7,7,0,0,1,5.32,2.86l66.21,91.14,67-91.14a7,7,0,0,1,5.32-2.86h43.32c4.09.41,6.95,3.27,6.95,6.95Z"/></svg>